<svg id="svg" version="1.1" width="400" height="400" xmlns="http://www.w3.org/2000/svg" xmlns:xlink="http://www.w3.org/1999/xlink" style="display: block;"><g id="svgg"><path id="path0" d="M114.400 297.587 C 113.630 297.775,112.280 298.208,111.400 298.547 C 110.520 298.887,109.301 299.173,108.690 299.182 C 105.798 299.228,97.939 304.476,94.782 308.470 C 82.661 323.804,91.189 350.112,109.400 353.563 C 110.500 353.772,111.940 354.224,112.600 354.569 C 115.036 355.840,127.709 355.458,132.141 353.979 C 136.327 352.583,140.647 350.536,144.053 348.335 C 145.347 347.498,146.899 346.704,147.503 346.570 C 149.734 346.073,150.000 345.931,150.000 345.233 C 150.000 344.367,146.295 339.386,145.224 338.813 C 144.263 338.298,143.303 338.647,142.993 339.623 C 142.366 341.596,136.692 345.200,131.400 346.985 C 118.298 351.404,104.992 344.795,102.019 332.392 C 98.387 317.240,108.097 304.380,123.148 304.409 C 126.915 304.416,128.132 304.568,129.544 305.209 C 130.503 305.644,131.517 306.000,131.797 306.000 C 133.476 306.000,139.173 309.504,141.689 312.083 C 144.922 315.397,144.990 315.384,147.936 310.897 C 150.411 307.128,150.471 306.618,148.520 305.974 C 147.707 305.705,146.132 304.947,145.020 304.289 C 141.248 302.055,136.159 299.652,134.176 299.166 C 133.089 298.901,131.660 298.407,131.000 298.068 C 129.618 297.360,116.840 296.990,114.400 297.587 M201.800 309.969 C 201.098 310.243,201.017 310.582,201.137 312.743 L 201.274 315.204 193.775 330.102 C 189.651 338.296,185.405 346.575,184.338 348.501 C 181.553 353.532,181.608 353.600,188.400 353.600 C 194.126 353.600,194.400 353.485,194.400 351.076 C 194.400 345.305,195.506 344.800,208.130 344.800 C 220.336 344.800,221.600 345.420,221.600 351.409 L 221.600 353.151 223.331 353.411 C 225.846 353.788,234.691 353.472,235.174 352.987 C 235.456 352.704,235.079 351.762,233.973 349.987 C 232.145 347.054,223.625 331.450,218.520 321.683 C 215.246 315.421,215.114 315.067,215.151 312.628 C 215.186 310.323,215.107 310.068,214.295 309.851 C 212.997 309.503,202.744 309.600,201.800 309.969 M269.098 310.100 C 268.506 310.553,268.499 310.808,269.022 312.787 C 269.860 315.957,269.865 347.211,269.028 350.413 C 268.204 353.565,267.078 353.377,288.188 353.600 L 307.137 353.800 308.094 354.700 C 310.238 356.715,310.789 355.753,310.789 350.000 C 310.789 345.600,310.551 344.400,309.679 344.400 C 309.334 344.400,308.621 344.805,308.094 345.300 C 306.607 346.698,283.185 346.932,281.448 345.566 L 280.347 344.700 280.474 327.370 C 280.598 310.325,280.587 310.037,279.800 309.826 C 278.133 309.378,269.763 309.593,269.098 310.100 M209.488 326.100 C 210.686 327.403,214.000 334.211,214.000 335.369 C 214.000 337.161,212.724 337.600,207.511 337.600 C 200.504 337.600,200.151 337.098,203.017 331.209 C 206.058 324.960,207.438 323.871,209.488 326.100 " stroke="none" fill="#ffffff" fill-rule="evenodd"></path><path id="path1" d="M0.000 200.000 L 0.000 400.000 200.000 400.000 L 400.000 400.000 400.000 200.000 L 400.000 0.000 200.000 0.000 L 0.000 0.000 0.000 200.000 M34.769 20.652 C 35.996 21.462,43.570 26.744,51.600 32.390 C 59.630 38.036,73.130 47.522,81.600 53.470 C 90.070 59.418,118.510 79.399,144.800 97.872 C 171.090 116.345,194.204 132.571,196.164 133.930 C 201.181 137.408,200.484 137.591,211.400 129.934 C 228.495 117.943,318.427 54.764,342.800 37.622 C 368.147 19.796,369.687 18.800,371.907 18.800 C 376.311 18.800,379.107 23.304,377.117 27.195 C 376.036 29.309,376.132 29.236,358.200 41.805 C 350.720 47.048,337.130 56.590,328.000 63.009 C 318.870 69.428,299.790 82.831,285.600 92.793 C 271.410 102.755,257.190 112.748,254.000 115.000 C 250.810 117.252,240.820 124.268,231.800 130.591 C 214.723 142.561,213.200 143.725,213.200 144.800 C 213.200 145.921,214.500 146.871,254.400 174.884 C 275.850 189.943,311.670 215.094,334.000 230.774 C 356.330 246.455,375.092 259.746,375.693 260.310 C 379.821 264.185,377.434 270.800,371.907 270.800 C 369.427 270.800,372.033 272.574,297.600 220.200 C 292.870 216.872,274.420 203.909,256.600 191.395 C 238.780 178.880,219.266 165.166,213.235 160.920 C 204.430 154.722,202.013 153.200,200.968 153.200 C 199.660 153.200,196.873 155.081,166.800 176.251 C 156.967 183.173,133.366 199.756,90.600 229.789 C 71.240 243.385,52.790 256.350,49.600 258.600 C 32.730 270.500,32.246 270.800,29.938 270.800 C 26.023 270.800,23.140 266.817,24.367 263.101 C 25.042 261.055,26.819 259.595,39.200 250.908 C 52.526 241.559,120.952 193.497,143.000 178.000 C 151.360 172.124,164.680 162.770,172.600 157.212 C 188.103 146.334,188.800 145.800,188.800 144.800 C 188.800 143.846,187.955 143.169,178.200 136.308 C 168.135 129.229,116.187 92.740,76.400 64.802 C 61.550 54.374,45.800 43.306,41.400 40.206 C 37.000 37.106,31.935 33.543,30.145 32.289 C 24.969 28.662,23.575 26.591,24.172 23.409 C 25.027 18.850,30.058 17.541,34.769 20.652 M132.344 296.809 C 133.303 297.244,134.353 297.600,134.677 297.600 C 135.570 297.600,140.232 299.729,144.021 301.866 C 145.879 302.914,148.480 304.146,149.800 304.602 C 153.088 305.739,153.103 306.295,149.966 311.052 C 146.095 316.923,144.204 318.043,142.330 315.574 C 139.052 311.252,136.268 309.341,129.592 306.830 C 124.233 304.815,115.832 306.198,110.600 309.958 C 101.491 316.503,100.344 331.925,108.331 340.463 C 113.457 345.943,123.115 348.523,129.126 346.019 C 130.157 345.590,131.724 345.054,132.608 344.829 C 135.948 343.977,139.419 341.427,142.218 337.770 C 144.003 335.437,146.041 336.478,149.999 341.744 C 153.709 346.679,153.664 347.265,149.530 347.913 C 147.959 348.160,146.189 348.917,143.549 350.473 C 139.016 353.145,136.611 354.299,134.098 355.011 C 133.054 355.307,131.480 355.822,130.600 356.157 C 128.289 357.035,114.488 357.030,112.200 356.149 C 111.320 355.811,109.521 355.265,108.202 354.936 C 91.772 350.843,82.833 331.141,89.629 314.000 C 92.631 306.429,101.221 298.985,108.498 297.650 C 109.761 297.418,111.291 296.959,111.898 296.630 C 113.770 295.615,130.025 295.757,132.344 296.809 M217.198 308.998 C 217.504 309.367,217.587 310.017,217.415 310.698 C 216.423 314.613,216.190 314.009,224.682 329.600 C 226.659 333.230,229.863 339.118,231.802 342.685 C 233.741 346.251,236.019 350.006,236.864 351.028 C 239.781 354.558,239.253 354.800,228.648 354.800 C 218.839 354.800,218.260 354.649,219.106 352.308 C 220.947 347.217,219.440 346.291,209.000 346.099 C 196.943 345.876,194.619 347.067,196.838 352.332 C 197.796 354.605,197.109 354.800,188.152 354.800 C 181.690 354.800,180.356 354.699,179.829 354.171 C 179.008 353.350,179.014 353.317,180.300 351.649 C 182.071 349.353,184.356 345.097,192.204 329.481 C 199.959 314.048,199.879 314.256,199.125 311.437 C 198.316 308.412,198.353 308.400,208.200 308.400 C 215.255 308.400,216.786 308.502,217.198 308.998 M282.826 308.814 C 283.802 309.336,283.797 309.844,282.800 311.800 C 281.967 313.434,281.525 342.633,282.314 343.875 C 283.014 344.975,285.108 345.200,294.639 345.200 C 305.202 345.200,306.126 345.051,307.970 343.052 C 310.973 339.795,312.400 342.034,312.400 350.000 C 312.400 357.966,310.973 360.205,307.970 356.948 C 305.998 354.811,305.891 354.800,285.987 354.800 C 264.442 354.800,264.918 354.889,266.800 351.200 C 267.565 349.700,267.600 348.842,267.600 331.510 C 267.600 314.152,267.566 313.325,266.800 311.896 C 265.817 310.061,265.794 309.360,266.700 308.832 C 267.637 308.286,281.810 308.270,282.826 308.814 M205.204 330.791 C 202.780 335.612,203.145 336.400,207.800 336.400 C 212.159 336.400,212.776 335.515,210.949 331.887 C 208.235 326.499,207.439 326.348,205.204 330.791 " stroke="none" fill="#272b30" fill-rule="evenodd"></path><path id="path2" d="M27.366 19.345 C 21.850 21.852,23.018 27.296,30.145 32.289 C 31.935 33.543,37.000 37.106,41.400 40.206 C 45.800 43.306,61.550 54.374,76.400 64.802 C 116.187 92.740,168.135 129.229,178.200 136.308 C 187.955 143.169,188.800 143.846,188.800 144.800 C 188.800 145.800,188.103 146.334,172.600 157.212 C 164.680 162.770,151.360 172.124,143.000 178.000 C 120.952 193.497,52.526 241.559,39.200 250.908 C 26.819 259.595,25.042 261.055,24.367 263.101 C 23.140 266.817,26.023 270.800,29.938 270.800 C 32.246 270.800,32.730 270.500,49.600 258.600 C 52.790 256.350,71.240 243.385,90.600 229.789 C 133.366 199.756,156.967 183.173,166.800 176.251 C 196.873 155.081,199.660 153.200,200.968 153.200 C 202.013 153.200,204.430 154.722,213.235 160.920 C 219.266 165.166,238.780 178.880,256.600 191.395 C 274.420 203.909,292.870 216.872,297.600 220.200 C 372.033 272.574,369.427 270.800,371.907 270.800 C 377.434 270.800,379.821 264.185,375.693 260.310 C 375.092 259.746,356.330 246.455,334.000 230.774 C 311.670 215.094,275.850 189.943,254.400 174.884 C 214.500 146.871,213.200 145.921,213.200 144.800 C 213.200 143.725,214.723 142.561,231.800 130.591 C 240.820 124.268,250.810 117.252,254.000 115.000 C 257.190 112.748,271.410 102.755,285.600 92.793 C 299.790 82.831,318.870 69.428,328.000 63.009 C 337.130 56.590,350.720 47.048,358.200 41.805 C 376.132 29.236,376.036 29.309,377.117 27.195 C 379.107 23.304,376.311 18.800,371.907 18.800 C 369.687 18.800,368.147 19.796,342.800 37.622 C 318.427 54.764,228.495 117.943,211.400 129.934 C 200.484 137.591,201.181 137.408,196.164 133.930 C 194.204 132.571,171.090 116.345,144.800 97.872 C 118.510 79.399,90.070 59.418,81.600 53.470 C 73.130 47.522,59.630 38.036,51.600 32.390 C 30.639 17.652,30.846 17.764,27.366 19.345 M111.898 296.630 C 111.291 296.959,109.761 297.418,108.498 297.650 C 93.567 300.389,83.650 319.162,88.555 335.400 C 91.368 344.712,99.460 352.758,108.202 354.936 C 109.521 355.265,111.320 355.811,112.200 356.149 C 114.488 357.030,128.289 357.035,130.600 356.157 C 131.480 355.822,133.054 355.307,134.098 355.011 C 136.611 354.299,139.016 353.145,143.549 350.473 C 146.189 348.917,147.959 348.160,149.530 347.913 C 153.664 347.265,153.709 346.679,149.999 341.744 C 146.041 336.478,144.003 335.437,142.218 337.770 C 139.419 341.427,135.948 343.977,132.608 344.829 C 131.724 345.054,130.157 345.590,129.126 346.019 C 123.115 348.523,113.457 345.943,108.331 340.463 C 101.687 333.360,101.081 321.448,106.973 313.755 C 115.509 302.607,133.183 303.516,142.330 315.574 C 144.204 318.043,146.095 316.923,149.966 311.052 C 153.103 306.295,153.088 305.739,149.800 304.602 C 148.480 304.146,145.879 302.914,144.021 301.866 C 140.232 299.729,135.570 297.600,134.677 297.600 C 134.353 297.600,133.303 297.244,132.344 296.809 C 130.025 295.757,113.770 295.615,111.898 296.630 M131.000 298.068 C 131.660 298.407,133.089 298.901,134.176 299.166 C 136.159 299.652,141.248 302.055,145.020 304.289 C 146.132 304.947,147.707 305.705,148.520 305.974 C 150.471 306.618,150.411 307.128,147.936 310.897 C 144.990 315.384,144.922 315.397,141.689 312.083 C 139.173 309.504,133.476 306.000,131.797 306.000 C 131.517 306.000,130.503 305.644,129.544 305.209 C 123.627 302.524,112.506 305.352,107.155 310.903 C 94.019 324.529,103.343 347.612,122.275 348.335 C 129.797 348.622,141.729 343.605,142.993 339.623 C 143.303 338.647,144.263 338.298,145.224 338.813 C 146.295 339.386,150.000 344.367,150.000 345.233 C 150.000 345.931,149.734 346.073,147.503 346.570 C 146.899 346.704,145.347 347.498,144.053 348.335 C 140.647 350.536,136.327 352.583,132.141 353.979 C 127.709 355.458,115.036 355.840,112.600 354.569 C 111.940 354.224,110.500 353.772,109.400 353.563 C 91.189 350.112,82.661 323.804,94.782 308.470 C 97.939 304.476,105.798 299.228,108.690 299.182 C 109.301 299.173,110.520 298.887,111.400 298.547 C 114.394 297.392,115.797 297.244,122.800 297.349 C 128.148 297.429,130.083 297.599,131.000 298.068 M199.174 309.031 C 198.755 309.536,198.745 310.016,199.125 311.437 C 199.879 314.256,199.959 314.048,192.204 329.481 C 184.356 345.097,182.071 349.353,180.300 351.649 C 179.014 353.317,179.008 353.350,179.829 354.171 C 180.356 354.699,181.690 354.800,188.152 354.800 C 197.109 354.800,197.796 354.605,196.838 352.332 C 194.619 347.067,196.943 345.876,209.000 346.099 C 219.440 346.291,220.947 347.217,219.106 352.308 C 218.260 354.649,218.839 354.800,228.648 354.800 C 239.253 354.800,239.781 354.558,236.864 351.028 C 236.019 350.006,233.741 346.251,231.802 342.685 C 229.863 339.118,226.659 333.230,224.682 329.600 C 216.190 314.009,216.423 314.613,217.415 310.698 C 217.970 308.506,217.547 308.400,208.200 308.400 C 200.945 308.400,199.621 308.493,199.174 309.031 M266.700 308.832 C 265.794 309.360,265.817 310.061,266.800 311.896 C 267.566 313.325,267.600 314.152,267.600 331.510 C 267.600 348.842,267.565 349.700,266.800 351.200 C 264.918 354.889,264.442 354.800,285.987 354.800 C 305.891 354.800,305.998 354.811,307.970 356.948 C 310.973 360.205,312.400 357.966,312.400 350.000 C 312.400 342.034,310.973 339.795,307.970 343.052 C 306.126 345.051,305.202 345.200,294.639 345.200 C 285.108 345.200,283.014 344.975,282.314 343.875 C 281.525 342.633,281.967 313.434,282.800 311.800 C 283.797 309.844,283.802 309.336,282.826 308.814 C 281.810 308.270,267.637 308.286,266.700 308.832 M214.295 309.851 C 215.107 310.068,215.186 310.323,215.151 312.628 C 215.114 315.067,215.246 315.421,218.520 321.683 C 223.625 331.450,232.145 347.054,233.973 349.987 C 235.079 351.762,235.456 352.704,235.174 352.987 C 234.691 353.472,225.846 353.788,223.331 353.411 L 221.600 353.151 221.600 351.409 C 221.600 345.420,220.336 344.800,208.130 344.800 C 195.506 344.800,194.400 345.305,194.400 351.076 C 194.400 353.485,194.126 353.600,188.400 353.600 C 181.608 353.600,181.553 353.532,184.338 348.501 C 185.405 346.575,189.651 338.296,193.775 330.102 L 201.274 315.204 201.137 312.743 C 201.017 310.582,201.098 310.243,201.800 309.969 C 202.744 309.600,212.997 309.503,214.295 309.851 M279.800 309.826 C 280.587 310.037,280.598 310.325,280.474 327.370 L 280.347 344.700 281.448 345.566 C 283.185 346.932,306.607 346.698,308.094 345.300 C 310.238 343.285,310.789 344.247,310.789 350.000 C 310.789 354.400,310.551 355.600,309.679 355.600 C 309.334 355.600,308.621 355.195,308.094 354.700 L 307.137 353.800 288.188 353.600 C 267.078 353.377,268.204 353.565,269.028 350.413 C 269.865 347.211,269.860 315.957,269.022 312.787 C 268.223 309.767,268.507 309.599,274.376 309.605 C 276.919 309.608,279.360 309.708,279.800 309.826 M205.644 326.338 C 204.590 327.818,201.200 334.785,201.200 335.471 C 201.200 337.115,202.638 337.600,207.511 337.600 C 214.762 337.600,215.246 336.881,212.158 330.692 C 209.302 324.968,207.484 323.754,205.644 326.338 M209.121 328.700 C 213.110 334.354,212.759 336.400,207.800 336.400 C 203.145 336.400,202.780 335.612,205.204 330.791 C 206.987 327.245,207.792 326.816,209.121 328.700 " stroke="none" fill="#ff9999" fill-rule="evenodd"></path></g></svg>